<mxfile host="app.diagrams.net" modified="2023-09-06T06:01:40.498Z" agent="Mozilla/5.0 (Windows NT 10.0; Win64; x64) AppleWebKit/537.36 (KHTML, like Gecko) Chrome/116.0.0.0 Safari/537.36" version="21.7.1" etag="YioRAZB3MkIAj04uy_9o" type="github">
  <diagram name="Page-1" id="HNDOU5CrP6zk8UvPGLSL">
    <mxGraphModel>
      <root>
        <mxCell id="0" />
        <mxCell id="1" parent="0" />
      </root>
    </mxGraphModel>
  </diagram>
</mxfile>
